:SAMPLES-PER-SECOND 30
:FULLY-SPECIFIED
:DEGREES
156
root  59.3538 36.3317 7.98294 17.1032 3.30043 -1.0079
RightUpLeg  -53.2011 -11.517 6.13019
RightLeg  38.2529 -4.99709 -4.49099
RightFoot  -4.04153 0.144799 -2.6956
RightToes  0.000482159 0.542163 -0.142577
Spine  48.8837 -3.0096 7.76721
Spine1  7.31131 1.1413 -5.22559
HEad  -0.937643 5.35598 -13.5189
LeftShoulder1  7.93553 -12.8212 -42.216
LeftArm  -21.6614 11.8144 -24.3736
LeftForeArm  56.987 -68.8572 -22.8054
LeftHand  -0.25398 0.0180481 5.50724
RightShoulder  4.5504 9.18588 29.894
RightArm  -18.3891 0.388729 38.3825
RightForeArm  5.33186 47.1897 11.7399
RightHand  -3.76029 9.90733 -28.4091
LeftUpLeg  -54.4264 13.5951 -5.21337
LeftLeg  32.0512 3.02233 2.39242
LeftFoot  4.49869 -0.232119 1.47204
LeftToes  1.06245e-005 4.65855e-005 -8.18503e-006
157
root  59.4484 35.8767 7.26454 16.6365 3.44017 -0.998463
RightUpLeg  -55.0952 -11.4554 5.87864
RightLeg  40.3378 -5.14815 -4.9597
RightFoot  -4.52211 0.0586248 -1.49223
RightToes  0.000482159 0.542163 -0.142577
Spine  50.4742 -3.48193 8.06199
Spine1  7.11325 0.734831 -4.82121
HEad  -2.24002 3.91573 -12.4559
LeftShoulder1  7.97231 -12.9894 -41.9622
LeftArm  -22.2206 11.005 -24.23
LeftForeArm  57.3764 -69.1569 -23.1923
LeftHand  -0.25398 0.0180481 5.50724
RightShoulder  4.40937 9.06556 29.0995
RightArm  -19.2641 1.71229 38.041
RightForeArm  5.08518 47.8994 12.0657
RightHand  -3.84785 10.0945 -28.7026
LeftUpLeg  -56.0501 11.8344 -4.55362
LeftLeg  34.0709 4.2602 3.4548
LeftFoot  4.16926 -0.141795 0.853489
LeftToes  1.06245e-005 4.65855e-005 -8.18503e-006
158
root  59.5546 35.3134 6.54589 15.4707 3.44176 -1.23605
RightUpLeg  -56.5572 -11.1882 5.63627
RightLeg  43.0934 -5.33535 -5.63044
RightFoot  -5.39599 -0.0132378 -0.448509
RightToes  0.000482159 0.542163 -0.142577
Spine  52.0855 -3.87312 8.60367
Spine1  6.88068 0.510677 -4.37798
HEad  -3.02655 2.90817 -11.5366
LeftShoulder1  7.94196 -13.0897 -41.5189
LeftArm  -22.6635 10.3829 -24.3892
LeftForeArm  59.2921 -69.8876 -24.0483
LeftHand  -0.25398 0.0180481 5.50724
RightShoulder  4.23315 8.92053 28.0655
RightArm  -20.0126 2.84376 37.7996
RightForeArm  5.19439 48.5995 12.3705
RightHand  -3.88801 10.2806 -28.6613
LeftUpLeg  -57.4953 10.1659 -3.43608
LeftLeg  37.0396 5.37913 4.70996
LeftFoot  3.53233 -0.0662648 0.34474
LeftToes  1.06245e-005 4.65855e-005 -8.18503e-006
159
root  59.6406 34.6279 5.82847 13.8685 3.14833 -1.66241
RightUpLeg  -57.8899 -10.696 5.58092
RightLeg  46.2569 -5.26649 -6.19633
RightFoot  -6.47102 -0.0465845 0.0634732
RightToes  0.000482159 0.542163 -0.142577
Spine  53.5775 -3.85821 8.92878
Spine1  6.58894 0.470243 -3.49576
HEad  -3.45502 2.47959 -10.8719
LeftShoulder1  7.92701 -13.1939 -41.1554
LeftArm  -23.1514 10.227 -24.5175
LeftForeArm  62.088 -70.9776 -25.4783
LeftHand  -0.25398 0.0180481 5.50724
RightShoulder  4.07009 8.80838 27.0195
RightArm  -20.5675 3.96972 37.4529
RightForeArm  5.1232 48.995 12.5572
RightHand  -4.01444 10.7056 -28.8046
LeftUpLeg  -59.0501 9.11494 -2.30999
LeftLeg  40.7102 6.03564 5.91844
LeftFoot  2.87185 -0.0614918 0.355036
LeftToes  1.06245e-005 4.65855e-005 -8.18503e-006
160
root  59.701 33.8375 5.10969 12.0317 2.39903 -2.18175
RightUpLeg  -59.3273 -10.0184 5.76925
RightLeg  49.6387 -4.95887 -6.58831
RightFoot  -7.12375 -0.0550989 0.180207
RightToes  0.000482159 0.542163 -0.142577
Spine  54.8489 -3.39971 8.82217
Spine1  6.24703 0.684609 -2.462
HEad  -3.68257 2.24392 -10.2954
LeftShoulder1  7.92588 -13.2813 -40.917
LeftArm  -23.7527 10.3242 -24.4598
LeftForeArm  64.8124 -72.1333 -27.2802
LeftHand  -0.25398 0.0180481 5.50724
RightShoulder  3.93923 8.72194 26.1517
RightArm  -20.9514 5.18462 37.0353
RightForeArm  5.02212 49.1038 12.6154
RightHand  -4.17541 11.1398 -29.1568
LeftUpLeg  -60.7125 8.89737 -1.37381
LeftLeg  44.6967 6.33351 7.07009
LeftFoot  2.41751 -0.0963721 0.677636
LeftToes  1.06245e-005 4.65855e-005 -8.18503e-006
161
root  59.7622 32.9525 4.38036 9.91077 1.37286 -2.82527
RightUpLeg  -60.7296 -9.40392 6.26
RightLeg  53.1683 -4.52898 -6.86866
RightFoot  -7.32493 -0.0514865 0.051333
RightToes  0.000482159 0.542163 -0.142577
Spine  55.9164 -2.90168 8.6675
Spine1  5.81479 1.06694 -1.80485
HEad  -3.76614 1.63489 -9.6634
LeftShoulder1  7.8551 -13.2649 -40.5631
LeftArm  -24.3713 10.4738 -24.3194
LeftForeArm  67.8481 -73.3253 -29.4444
LeftHand  -0.25398 0.0180481 5.50724
RightShoulder  3.84158 8.66134 25.4823
RightArm  -21.1699 6.23572 36.7343
RightForeArm  5.3336 49.3603 12.7123
RightHand  -4.12396 10.951 -29.128
LeftUpLeg  -62.3403 9.33034 -0.545595
LeftLeg  48.8312 6.31958 8.11475
LeftFoot  2.2513 -0.152282 1.16366
LeftToes  1.06245e-005 4.65855e-005 -8.18503e-006
162
root  59.8412 31.9879 3.63842 7.46707 0.537776 -3.42145
RightUpLeg  -61.962 -9.25954 6.8381
RightLeg  56.7929 -3.95431 -6.9385
RightFoot  -7.60004 -0.0438535 -0.237335
RightToes  0.000482159 0.542163 -0.142577
Spine  56.8663 -2.63241 8.76541
Spine1  5.20461 1.33555 -1.3432
HEad  -3.78236 1.0249 -9.06051
LeftShoulder1  7.77209 -13.3065 -39.9879
LeftArm  -24.9271 10.6534 -24.1205
LeftForeArm  71.694 -74.5348 -31.9473
LeftHand  -0.25398 0.0180481 5.50724
RightShoulder  3.74716 8.58793 24.8661
RightArm  -21.2899 6.86739 36.6065
RightForeArm  5.87547 50.067 13.0091
RightHand  -3.81929 10.076 -28.5302
LeftUpLeg  -63.7629 9.7492 0.154082
LeftLeg  52.8375 6.06513 8.98483
LeftFoot  2.44084 -0.259276 2.02034
LeftToes  1.06245e-005 4.65855e-005 -8.18503e-006
163
root  59.9234 31.0008 2.88102 4.88123 0.214226 -3.66054
RightUpLeg  -63.1213 -9.78041 7.13498
RightLeg  60.2987 -3.30824 -6.78604
RightFoot  -8.03911 -0.0401176 -0.496709
RightToes  0.000482159 0.542163 -0.142577
Spine  57.7527 -2.52989 8.80548
Spine1  4.4075 1.18998 -0.530308
HEad  -4.04909 0.866289 -8.58205
LeftShoulder1  7.70923 -13.4739 -39.2032
LeftArm  -25.5585 10.7334 -23.878
LeftForeArm  75.553 -75.5592 -34.3993
LeftHand  -0.25398 0.0180481 5.50724
RightShoulder  3.64624 8.52426 24.1581
RightArm  -21.4855 7.38592 36.7086
RightForeArm  6.39155 50.9679 13.4144
RightHand  -3.52375 9.24193 -27.8588
LeftUpLeg  -64.8829 9.62005 0.505367
LeftLeg  56.2266 5.77764 9.72302
LeftFoot  3.02185 -0.419012 3.17649
LeftToes  1.06245e-005 4.65855e-005 -8.18503e-006
164
root  59.9841 30.0228 2.08482 2.30854 0.296536 -3.64254
RightUpLeg  -64.3012 -10.6665 7.18724
RightLeg  63.4954 -2.81395 -6.74416
RightFoot  -8.25787 -0.0383338 -0.653392
RightToes  0.000482159 0.542163 -0.142577
Spine  58.4449 -2.47698 8.57878
Spine1  3.59489 0.716794 0.60111
HEad  -4.64778 1.02223 -8.20658
LeftShoulder1  7.59923 -13.6407 -38.1665
LeftArm  -26.3176 10.4155 -23.6477
LeftForeArm  77.8605 -76.1395 -36.0044
LeftHand  -0.25398 0.0180481 5.50724
RightShoulder  3.57633 8.50929 23.5854
RightArm  -21.8565 8.1171 36.9254
RightForeArm  7.24307 51.8502 13.802
RightHand  -3.38995 8.91706 -27.4291
LeftUpLeg  -65.8244 9.20999 0.528579
LeftLeg  58.9384 5.49067 10.2954
LeftFoot  3.80886 -0.55984 4.03654
LeftToes  1.06245e-005 4.65855e-005 -8.18503e-006
165
root  60.0113 28.975 1.23735 -0.611432 0.347649 -3.72035
RightUpLeg  -65.2718 -11.3375 7.22368
RightLeg  66.631 -2.49238 -7.03719
RightFoot  -8.15292 -0.0299603 -0.906211
RightToes  0.000482159 0.542163 -0.142577
Spine  58.834 -2.40541 8.29456
Spine1  3.04052 0.300837 1.61412
HEad  -5.09582 0.99306 -7.70884
LeftShoulder1  7.41334 -13.7364 -36.8887
LeftArm  -26.9407 9.54945 -23.3809
LeftForeArm  77.7596 -76.1434 -36.0493
LeftHand  -0.25398 0.0180481 5.50724
RightShoulder  3.56636 8.57148 23.3363
RightArm  -22.26 8.66333 37.0775
RightForeArm  8.63668 53.0115 14.3192
RightHand  -3.28504 8.69169 -27.0233
LeftUpLeg  -66.6137 9.19909 0.572247
LeftLeg  61.6612 5.00429 10.562
LeftFoot  4.45242 -0.613405 4.22705
LeftToes  1.06245e-005 4.65855e-005 -8.18503e-006
